# xmcd
#
# Track frame offsets:
#	183
#	27193
#	45038
#	63905
#	79188
#	102703
#	116228
#	142605
#	154538
#	170308
#	191775
#	211038
#
# Disc length: 3131 seconds
#
# Revision: 2
# Processed by: cddbd v1.5.2PL0 Copyright (c) Steve Scherf et al.
# Submitted via: EZCDAudioConverter 7.1.2.1
#
DISCID=920c390c
DTITLE=Pablo Milanés y Silvio Rodríguez - Colección vol 2
DYEAR=1900
DGENRE=blues
TTITLE0=Pablo Milanés - Cuanto gané, cuanto perdí
TTITLE1=Silvio Rodríguez - Vamos a andar
TTITLE2=Pablo Milanés - Canción por la unidad latinoamericana
TTITLE3=Silvio Rodríguez - Yo te quiero libre
TTITLE4=Pablo Milanés - Homenaje
TTITLE5=Silvio Rodríguez - Canción urgente para Nicaragua
TTITLE6=Silvio Rodríguez - La Maza
TTITLE7=Pablo Milanés - Amor
TTITLE8=Silvio Rodríguez - Yo digo que las estrellas
TTITLE9=Pablo Milanés - Creéme (cuando te diga)
TTITLE10=Silvio Rodríguez - Llueve otra vez
TTITLE11=Pablo Milanés - Sublime ilusión
EXTD=
EXTT0=
EXTT1=
EXTT2=
EXTT3=
EXTT4=
EXTT5=
EXTT6=
EXTT7=
EXTT8=
EXTT9=
EXTT10=
EXTT11=
PLAYORDER=
